{
    "streams": [
        {
            "index": 0,
            "codec_name": "h264",
            "codec_long_name": "H.264 / AVC / MPEG-4 AVC / MPEG-4 part 10",
            "profile": "High",
            "codec_type": "video",
            "codec_time_base": "1/180000",
            "codec_tag_string": "avc1",
            "codec_tag": "0x31637661",
            "width": 710,
            "height": 576,
            "has_b_frames": 2,
            "sample_aspect_ratio": "16:15",
            "display_aspect_ratio": "71:54",
            "pix_fmt": "yuv420p",
            "level": 41,
            "r_frame_rate": "25/1",
            "avg_frame_rate": "1172243663/46890236",
            "time_base": "1/90000",
            "start_pts": 0,
            "start_time": "0.000000",
            "duration_ts": 165439727,
            "duration": "1838.219189",
            "bit_rate": "1233677",
            "nb_frames": "45955",
            "disposition": {
                "default": 1,
                "dub": 0,
                "original": 0,
                "comment": 0,
                "lyrics": 0,
                "karaoke": 0,
                "forced": 0,
                "hearing_impaired": 0,
                "visual_impaired": 0,
                "clean_effects": 0,
                "attached_pic": 0
            },
            "tags": {
                "language": "und",
                "handler_name": "VideoHandler"
            }
        },
        {
            "index": 1,
            "codec_name": "aac",
            "codec_long_name": "AAC (Advanced Audio Coding)",
            "codec_type": "audio",
            "codec_time_base": "1/48000",
            "codec_tag_string": "mp4a",
            "codec_tag": "0x6134706d",
            "sample_fmt": "fltp",
            "sample_rate": "48000",
            "channels": 2,
            "channel_layout": "stereo",
            "bits_per_sample": 0,
            "r_frame_rate": "0/0",
            "avg_frame_rate": "0/0",
            "time_base": "1/48000",
            "start_pts": -2048,
            "start_time": "-0.042667",
            "duration_ts": 88236032,
            "duration": "1838.250667",
            "bit_rate": "256000",
            "nb_frames": "86168",
            "disposition": {
                "default": 1,
                "dub": 0,
                "original": 0,
                "comment": 0,
                "lyrics": 0,
                "karaoke": 0,
                "forced": 0,
                "hearing_impaired": 0,
                "visual_impaired": 0,
                "clean_effects": 0,
                "attached_pic": 0
            },
            "tags": {
                "language": "zho",
                "handler_name": "SoundHandler"
            }
        },
        {
            "index": 2,
            "codec_name": "mov_text",
            "codec_long_name": "3GPP Timed Text subtitle",
            "codec_type": "subtitle",
            "codec_time_base": "1/90000",
            "codec_tag_string": "tx3g",
            "codec_tag": "0x67337874",
            "r_frame_rate": "0/0",
            "avg_frame_rate": "0/0",
            "time_base": "1/90000",
            "start_pts": -7200,
            "start_time": "-0.080000",
            "duration_ts": 165454127,
            "duration": "1838.379189",
            "bit_rate": "1",
            "nb_frames": "15",
            "disposition": {
                "default": 1,
                "dub": 0,
                "original": 0,
                "comment": 0,
                "lyrics": 0,
                "karaoke": 0,
                "forced": 0,
                "hearing_impaired": 0,
                "visual_impaired": 0,
                "clean_effects": 0,
                "attached_pic": 0
            },
            "tags": {
                "language": "und",
                "handler_name": "SubtitleHandler"
            }
        },
        {
            "index": 3,
            "codec_name": "mov_text",
            "codec_long_name": "3GPP Timed Text subtitle",
            "codec_type": "subtitle",
            "codec_time_base": "1/1000",
            "codec_tag_string": "text",
            "codec_tag": "0x74786574",
            "r_frame_rate": "0/0",
            "avg_frame_rate": "0/0",
            "time_base": "1/1000",
            "start_pts": -80,
            "start_time": "-0.080000",
            "duration_ts": 1838380,
            "duration": "1838.380000",
            "nb_frames": "14",
            "disposition": {
                "default": 0,
                "dub": 0,
                "original": 0,
                "comment": 0,
                "lyrics": 0,
                "karaoke": 0,
                "forced": 0,
                "hearing_impaired": 0,
                "visual_impaired": 0,
                "clean_effects": 0,
                "attached_pic": 0
            },
            "tags": {
                "language": "eng",
                "handler_name": "SubtitleHandler"
            }
        }
    ],
    "format": {
        "filename": "/home/laurence/Videos/Kids/TV/QiaoHu/QiaoHu Small World 2-3/Disc 1/Title 1.mp4",
        "nb_streams": 4,
        "nb_programs": 0,
        "format_name": "mov,mp4,m4a,3gp,3g2,mj2",
        "format_long_name": "QuickTime / MOV",
        "start_time": "-0.080000",
        "duration": "1838.380000",
        "size": "343675915",
        "bit_rate": "1495559",
        "probe_score": 100,
        "tags": {
            "major_brand": "isom",
            "minor_version": "512",
            "compatible_brands": "isomiso2avc1mp41",
            "encoder": "Lavf55.34.101"
        }
    }
}
